<?xml version="1.0" encoding="UTF-8"?>
<!DOCTYPE svg PUBLIC "-//W3C//DTD SVG 1.1//EN" "http://www.w3.org/Graphics/SVG/1.1/DTD/svg11.dtd">
<!-- Creator: CorelDRAW 2019 (64-Bit) -->
<svg xmlns="http://www.w3.org/2000/svg" xml:space="preserve" width="4.4186mm" height="4.4186mm" version="1.1" style="shape-rendering:geometricPrecision; text-rendering:geometricPrecision; image-rendering:optimizeQuality; fill-rule:evenodd; clip-rule:evenodd"
viewBox="0 0 441.86 441.86"
 xmlns:xlink="http://www.w3.org/1999/xlink">
 <defs>
  <style type="text/css">
   <![CDATA[
    .str0 {stroke:black;stroke-width:7.62;stroke-miterlimit:22.9256}
    .fil0 {fill:#FEFEFE}
   ]]>
  </style>
 </defs>
 <g id="Capa_x0020_1">
  <metadata id="CorelCorpID_0Corel-Layer"/>
  <g id="_1147569264">
   <path class="fil0 str0" d="M79.34 3.81l237.39 0c41.71,0 75.54,33.83 75.54,75.54l-0.01 237.39c0.01,41.7 -33.82,75.53 -75.53,75.53l-237.39 0c-41.7,0 -75.53,-33.83 -75.53,-75.54l0 -237.38c0,-41.71 33.83,-75.54 75.54,-75.54l-0.01 0z"/>
   <path class="fil0 str0" d="M58.02 397.24c12.57,24.24 37.9,40.81 67.1,40.81l237.39 0c41.72,0 75.54,-33.82 75.54,-75.54l0 -237.39c0,-29.19 -16.57,-54.52 -40.81,-67.09 5.39,10.39 8.43,22.2 8.43,34.72l0 237.39c0,41.71 -33.82,75.53 -75.53,75.53l-237.39 0c-12.52,0 -24.33,-3.04 -34.73,-8.43z"/>
  </g>
 </g>
</svg>
